<?xml version="1.0" standalone="no"?>
<!DOCTYPE svg PUBLIC "-//W3C//DTD SVG 20010904//EN"
 "http://www.w3.org/TR/2001/REC-SVG-20010904/DTD/svg10.dtd">
<svg version="1.0" xmlns="http://www.w3.org/2000/svg"
 width="587.000000pt" height="587.000000pt" viewBox="0 0 587.000000 587.000000"
 preserveAspectRatio="xMidYMid meet">
<metadata>
Created by potrace 1.11, written by Peter Selinger 2001-2013
</metadata>
<g transform="translate(0.000000,587.000000) scale(0.100000,-0.100000)"
fill="#000000" stroke="none">
<path d="M2780 5862 c-14 -2 -29 -8 -34 -12 -5 -5 -17 -5 -28 1 -25 14 -137 7
-150 -8 -7 -9 -15 -10 -30 -2 -18 9 -179 5 -237 -6 -9 -2 -26 -4 -38 -4 -12
-1 -32 -11 -43 -23 -19 -21 -20 -37 -7 -78 3 -7 -4 -10 -45 -19 -38 -9 -38 -9
-38 23 0 75 -48 85 -225 46 -22 -5 -56 -11 -75 -14 -144 -22 -430 -92 -448
-110 -19 -19 -21 -47 -5 -79 11 -22 11 -28 1 -32 -7 -2 -85 -29 -172 -59 -88
-30 -166 -62 -175 -71 -13 -13 -16 -44 -18 -167 -1 -82 -5 -154 -10 -158 -4
-4 -36 -17 -71 -30 -34 -12 -67 -31 -72 -40 -6 -11 -17 -16 -33 -13 -24 5
-200 -66 -224 -90 -23 -23 -22 -54 1 -86 19 -26 22 -42 21 -115 -1 -66 -5 -89
-19 -105 -24 -26 -26 -49 -9 -92 14 -36 14 -37 -32 -103 -97 -143 -210 -359
-283 -546 -65 -164 -140 -439 -156 -570 -3 -25 -8 -56 -11 -70 -27 -129 -27
-633 0 -770 2 -13 7 -42 10 -65 3 -22 8 -47 10 -55 2 -8 6 -33 10 -55 3 -22
10 -58 16 -80 6 -22 15 -56 20 -75 153 -597 519 -1150 1019 -1537 373 -288
884 -503 1329 -558 30 -4 61 -8 70 -10 78 -15 442 -22 541 -10 19 2 64 7 100
10 36 3 76 7 90 10 13 3 42 7 65 10 22 3 47 8 55 10 8 2 31 7 50 10 169 28
474 133 667 228 310 154 546 325 795 579 210 215 386 467 534 768 83 169 195
517 219 677 2 16 6 37 9 49 2 12 7 43 10 70 4 27 9 65 11 84 21 160 22 536 1
647 -2 10 -7 43 -10 74 -4 31 -9 67 -11 80 -3 13 -7 36 -10 51 -61 330 -195
672 -385 978 -25 41 -52 95 -59 120 -13 45 -69 137 -96 160 -16 13 -15 19 45
146 45 95 46 127 5 149 -11 5 -46 27 -77 48 -82 55 -163 62 -207 18 -18 -18
-19 -17 -35 29 -10 29 -27 52 -41 60 -25 13 -25 15 -25 156 0 79 -4 153 -9
167 -7 17 -26 29 -73 45 -75 25 -222 76 -260 91 -26 10 -27 11 -12 41 14 28
14 33 1 54 -21 32 -102 68 -146 65 -20 -1 -51 5 -68 14 -18 10 -35 17 -38 16
-6 -1 -54 7 -95 17 -14 3 -51 7 -82 9 -32 1 -64 8 -72 14 -19 16 -76 17 -106
2 -14 -7 -35 -25 -47 -39 l-23 -27 0 30 c-1 36 -17 59 -47 69 -42 13 -98 15
-126 4 -22 -8 -31 -8 -45 5 -17 15 -58 22 -192 32 -41 3 -102 8 -135 10 -51 4
-191 5 -300 3 -16 0 -59 1 -95 4 -36 2 -76 2 -90 0z"/>
</g>
</svg>
